<svg id="Layer_1" data-name="Layer 1" xmlns="http://www.w3.org/2000/svg" viewBox="0 0 483.85 80.16"><title>status-02</title><g id="xWPCBH"><path d="M373,80.15q-35.24,0-70.48,0c-11.28,0-16.39-5.18-16.41-16.52q0-24,0-48C286.11,5.32,291.45,0,301.87,0q71,0,142,0c10.27,0,15.64,5.39,15.68,15.76q.09,24.24,0,48.48c-.05,10.7-5.33,15.87-16.06,15.89Q408.21,80.19,373,80.15Zm.38-75.7q-34.75,0-69.5,0c-10.29,0-13.16,2.84-13.16,12.94,0,15.67,0,31.33,0,47,0,7.91,3.31,11.25,11.29,11.25q70.75.05,141.49,0C451.73,75.6,455,72.2,455,64q.05-23.25,0-46.5c0-10.07-3-13-13.16-13Q407.6,4.42,373.35,4.46Z"/><path d="M121,36.12c0,9.65-.18,19.31.08,29,.13,4.84-1.81,6.44-6.47,6.41-14.16-.09-12.6.74-12.61-12.67,0-17.3.1-34.61-.07-51.91,0-4.77,1.81-6.51,6.49-6.49,13.8.08,12.62-.65,12.59,12.26C121,20.48,121,28.3,121,36.12Z"/><path d="M87,43.54c0,7.48-.09,15,0,22.43.06,3.77-1.47,5.46-5.3,5.45-15.65,0-13.62,1.27-13.69-12.95C68,46,68.14,33.55,68,21.09c0-4.21,1.47-6.05,5.82-6,14.58.21,13.16-1.54,13.2,13C87,33.24,87,38.39,87,43.54Z"/><path d="M201.93,2.19c17.09.38,32.16,6.06,44.78,17.86,3.35,3.13,3.58,6.66.67,8.42s-5.22.17-7.49-1.86c-15.82-14.14-34.24-18.53-54.31-12.21-7.84,2.47-14.8,8-21.86,12.52-2.75,1.78-5.11,3.71-7.84,1-3-3.06-1.08-5.75,1.46-8.08C169.93,8.28,184.82,2.59,201.93,2.19Z"/><path d="M34,50.19c0-5.16.07-10.33,0-15.49-.06-3.37,1.63-4.86,4.79-5.09l.5,0c16.12,0,13.67-.69,13.76,12.58.06,7.83-.1,15.66.05,23.48.08,4-1.47,5.81-5.54,5.81C32,71.47,34.13,72.14,34,58.68,34,55.85,34,53,34,50.19Z"/><path d="M202.51,26.85a40.16,40.16,0,0,1,26.8,10.39c2.48,2.16,4.05,4.76,1.56,7.74s-5.23,1.57-7.76-.51c-13.64-11.23-28.79-11.24-42.54.07-2.7,2.22-5.32,3.25-7.76.28-2.25-2.73-.85-5.33,1.47-7.39A40.27,40.27,0,0,1,202.51,26.85Z"/><path d="M19,57.82c0,.33,0,.67,0,1C19,72,17.17,73.63,4,71.17,2.48,70.88.4,68.22.26,66.52-.2,60.74.09,54.89.09,49.07c0-3.27,1.55-4.88,4.89-4.86C21.09,44.3,18.93,42.6,19,57.82Z"/><path d="M209.37,53.31c7.36,2.84,7.27,5.43,2.43,11.64-1.73,2.22-3.36,4.52-5.14,6.7-3.28,4-6.07,4-9.29.12-2.21-2.69-4.32-5.45-6.42-8.22-3.18-4.2-2.81-7.2,1.76-9.75C195.51,52.24,207.39,52.55,209.37,53.31Z"/><path d="M466.4,40c0-3.83-.31-7.7.17-11.47a5,5,0,0,1,3.6-3.26c7-.33,13.49,6.73,13.68,14.47s-6.13,15.07-13.41,15.42c-2.75.13-4.09-.9-4.08-3.66,0-3.83,0-7.66,0-11.5Zm4.87,9.79c5.46-1.43,8.12-4.84,8-10-.12-4.94-2.85-8.18-8-9.28Z"/><path d="M298.47,66.83V13.34h85V66.83Z"/></g></svg>